<?xml version="1.0" encoding="UTF-8"?>
<!-- Generator: Adobe Illustrator 18.0.0, SVG Export Plug-In . SVG Version: 6.00 Build 0)  -->
<!DOCTYPE svg PUBLIC "-//W3C//DTD SVG 1.1//EN" "http://www.w3.org/Graphics/SVG/1.1/DTD/svg11.dtd">
<svg version="1.1" id="Capa_1" xmlns="http://www.w3.org/2000/svg" xmlns:xlink="http://www.w3.org/1999/xlink" x="0px" y="0px" viewBox="0 0 25 20" enable-background="new 0 0 25 20" xml:space="preserve">
<path fill="#010202" d="M22.8,4.5l-0.5,7.5c0,0.3-0.3,0.6-0.6,0.6H9.5L8.6,15h13c0.4,0,0.7,0.3,0.7,0.7c0,0.4-0.3,0.6-0.7,0.7H7.7  c-0.2,0-0.4-0.1-0.5-0.3c-0.1-0.2-0.2-0.4-0.1-0.6l1.4-3.4L4.7,2.6L2.5,1.2C2.2,1,2.1,0.6,2.3,0.3s0.6-0.4,0.9-0.2l2.2,1.4l16.9,2.3  C22.6,3.8,22.9,4.1,22.8,4.5z M12,18.2c0,1-0.8,1.8-1.8,1.8s-1.8-0.8-1.8-1.8c0-1,0.8-1.8,1.8-1.8C11.2,16.4,12,17.2,12,18.2z   M22.5,18.2c0,1-0.8,1.8-1.8,1.8c-1,0-1.8-0.8-1.8-1.8c0-1,0.8-1.8,1.8-1.8C21.7,16.4,22.5,17.2,22.5,18.2z"/>
<div xmlns="" id="divScriptsUsed" style="display: none"/><script xmlns="" id="globalVarsDetection" src="moz-extension://6edfab6a-c409-4256-867c-e7deea2363d6/js/wrs_env.js"/></svg>